HIERARCHY
ROOT Hips
{
	OFFSET	0.00	0.00	0.00
	CHANNELS 6 Xposition Yposition Zposition Zrotation Xrotation Yrotation
	JOINT LeftUpLeg
	{
		OFFSET	 0.126116	-0.014019	-0.065224
		CHANNELS 3 Zrotation Xrotation Yrotation
		JOINT LeftLeg
		{
			OFFSET	 0.000000	 0.000000	 0.569914
			CHANNELS 3 Zrotation Xrotation Yrotation
			JOINT LeftFoot
			{
				OFFSET	 0.000000	 0.000000	 0.544423
				CHANNELS 3 Zrotation Xrotation Yrotation
				JOINT LeftToeBase
				{
					OFFSET	 0.000000	 0.000000	 0.207117
					CHANNELS 3 Zrotation Xrotation Yrotation
					End Site
					{
						OFFSET	 0.000000	 0.000000	 0.207117
					}
				}
			}
		}
	}
	JOINT RightUpLeg
	{
		OFFSET	-0.124023	-0.008373	-0.065224
		CHANNELS 3 Zrotation Xrotation Yrotation
		JOINT RightLeg
		{
			OFFSET	 0.000000	 0.000000	 0.570047
			CHANNELS 3 Zrotation Xrotation Yrotation
			JOINT RightFoot
			{
				OFFSET	 0.000000	 0.000000	 0.544354
				CHANNELS 3 Zrotation Xrotation Yrotation
				JOINT RightToeBase
				{
					OFFSET	 0.000000	 0.000000	 0.207540
					CHANNELS 3 Zrotation Xrotation Yrotation
					End Site
					{
						OFFSET	 0.000000	 0.000000	 0.207540
					}
				}
			}
		}
	}
	JOINT Spine
	{
		OFFSET	 0.000184	-0.007763	 0.117403
		CHANNELS 3 Zrotation Xrotation Yrotation
		JOINT Spine1
		{
			OFFSET	 0.000000	 0.000000	 0.137269
			CHANNELS 3 Zrotation Xrotation Yrotation
			JOINT Spine2
			{
				OFFSET	 0.000000	 0.000000	 0.156879
				CHANNELS 3 Zrotation Xrotation Yrotation
				JOINT LeftShoulder
				{
					OFFSET	 0.080501	-0.002496	 0.160144
					CHANNELS 3 Zrotation Xrotation Yrotation
					JOINT LeftArm
					{
						OFFSET	 0.000000	 0.000000	 0.164363
						CHANNELS 3 Zrotation Xrotation Yrotation
						JOINT LeftForeArm
						{
							OFFSET	 0.000000	 0.000000	 0.364576
							CHANNELS 3 Zrotation Xrotation Yrotation
							JOINT LeftHand
							{
								OFFSET	 0.000000	 0.000000	 0.360812
								CHANNELS 3 Zrotation Xrotation Yrotation
								JOINT LeftHandIndex1
								{
									OFFSET	 0.000000	 0.000000	 0.086006
									CHANNELS 3 Zrotation Xrotation Yrotation
									JOINT LeftHandIndex2
									{
										OFFSET	 0.000000	 0.000000	 0.047236
										CHANNELS 3 Zrotation Xrotation Yrotation
										JOINT LeftHandIndex3
										{
											OFFSET	-0.004284	-0.000551	 0.038166
											CHANNELS 3 Zrotation Xrotation Yrotation
											End Site
											{
												OFFSET	-0.004284	-0.000551	 0.038166
											}
										}
									}
								}
							}
						}
					}
				}
				JOINT Neck
				{
					OFFSET	 0.000000	 0.000000	 0.176489
					CHANNELS 3 Zrotation Xrotation Yrotation
					JOINT Head
					{
						OFFSET	 0.000000	-0.001747	 0.077940
						CHANNELS 3 Zrotation Xrotation Yrotation
						End Site
						{
							OFFSET	 0.000000	-0.001747	 0.077940
						}
					}
				}
				JOINT RightShoulder
				{
					OFFSET	-0.080363	 0.000306	 0.159706
					CHANNELS 3 Zrotation Xrotation Yrotation
					JOINT RightArm
					{
						OFFSET	 0.000000	 0.000000	 0.164196
						CHANNELS 3 Zrotation Xrotation Yrotation
						JOINT RightForeArm
						{
							OFFSET	 0.000000	 0.000000	 0.365611
							CHANNELS 3 Zrotation Xrotation Yrotation
							JOINT RightHand
							{
								OFFSET	 0.000000	 0.000000	 0.360648
								CHANNELS 3 Zrotation Xrotation Yrotation
								JOINT RightHandIndex1
								{
									OFFSET	 0.000000	 0.000000	 0.069977
									CHANNELS 3 Zrotation Xrotation Yrotation
									JOINT RightHandIndex2
									{
										OFFSET	 0.000000	 0.000000	 0.052305
										CHANNELS 3 Zrotation Xrotation Yrotation
										JOINT RightHandIndex3
										{
											OFFSET	 0.009002	-0.000782	 0.042196
											CHANNELS 3 Zrotation Xrotation Yrotation
											End Site
											{
												OFFSET	 0.009002	-0.000782	 0.042196
											}
										}
									}
								}
							}
						}
					}
				}
			}
		}
	}
}
MOTION
Frames:    10
Frame Time: 0.03333334
-0.033514	 0.265059	 1.032678	 2.777481	 33.161970	-7.940358	 59.255920	-75.057110	-130.363000	 5.671394	-68.909200	 5.682878	 67.841680	 73.557070	-79.057440	-2.385832	 28.452790	-0.000001	 37.815180	-84.197240	-137.777200	-16.404590	-73.053190	-10.781140	-29.173150	 76.354420	 54.591390	 2.384659	 28.388700	-0.000001	 9.056158	 14.255770	 0.606987	-1.751999	 20.748690	 1.073535	-4.485719	-2.565889	 3.840480	-99.128630	 68.197510	 156.901400	 2.864150	-9.438073	-46.781520	 0.969434	-0.872843	-6.160721	-38.608570	-15.182270	-22.577670	-2.027600	 6.559038	 9.033609	-5.188889	 0.308190	 3.541030	-5.234859	 0.342567	 0.430617	 0.276775	 17.172830	-5.809987	-3.295141	-28.078950	-2.511433	 97.425350	 64.626750	-159.278500	-12.169310	 6.860444	 62.094360	-15.221970	-3.643779	 24.812410	 23.033420	-15.108740	 18.245290	 1.803333	 3.979147	-15.098590	 4.898592	 3.004813	-9.310344	 5.224449	 0.395017	 2.014677
-0.029459	 0.262948	 1.058980	 2.614974	 31.164670	-7.202979	 48.431870	-71.674390	-141.558500	 4.465633	-64.903680	 4.423203	 62.884440	 73.298920	-73.338360	-2.385832	 28.452790	-0.000001	 10.064100	-80.491580	-164.167500	-14.734110	-69.072300	-8.965963	-26.671430	 75.689750	 51.457850	 2.384659	 28.388700	-0.000001	 0.063558	 13.758360	 0.326711	-1.224351	 20.996400	 0.385302	-5.069139	-3.951612	 3.427498	-98.438800	 68.823600	 158.104000	 3.703563	-5.563542	-48.098920	 6.057369	-2.078902	-8.864633	-38.125550	-16.462330	-23.413480	-2.027600	 6.559038	 9.033609	-5.188889	 0.308190	 3.541030	-5.234859	 0.342567	 0.430617	-0.554502	 10.635030	-3.973984	-4.235799	-21.488010	-3.200395	 97.048900	 64.071930	-160.776000	-14.066300	 6.634927	 59.486000	-17.799260	-6.944878	 32.671070	 21.331460	-15.496530	 19.778560	 1.803333	 3.979147	-15.098590	 4.898592	 3.004813	-9.310344	 5.224449	 0.395017	 2.014677
-0.025230	 0.259660	 1.083592	 2.453305	 29.184230	-6.386969	 41.232290	-67.953330	-149.258700	 3.763343	-61.036350	 3.658617	 58.398020	 73.017070	-68.104840	-2.385833	 28.452760	 0.000004	-1.307565	-75.930890	-174.271500	-13.778960	-65.085750	-7.839809	-24.078920	 75.102010	 48.284810	 2.384659	 28.388700	-0.000001	-8.004831	 13.188280	 0.068776	-0.817864	 21.186370	-0.121432	-5.610651	-5.504211	 2.927462	-97.220210	 70.575060	 159.298900	 4.860785	-1.012259	-49.540460	 10.494030	-3.414005	-10.985580	-38.038360	-18.101920	-25.124770	-2.027600	 6.559038	 9.033609	-5.188889	 0.308190	 3.541030	-5.234859	 0.342567	 0.430617	-1.027297	 3.035816	-2.434812	-4.956365	-13.984870	-3.682867	 96.562470	 64.445450	-161.739400	-16.030290	 8.035806	 57.308000	-20.047470	-10.852600	 39.421020	 19.567070	-16.190730	 20.593920	 1.803333	 3.979147	-15.098590	 4.898592	 3.004813	-9.310344	 5.224449	 0.395017	 2.014677
-0.020931	 0.255541	 1.108494	 2.261027	 26.986820	-5.319426	 35.625670	-63.817610	-155.596200	 3.615468	-56.991760	 3.382869	 53.612020	 72.709530	-62.706170	-2.385833	 28.452750	 0.000004	-8.124748	-70.648540	-179.822100	-13.084980	-60.711440	-6.934470	-21.762140	 74.528150	 45.390010	 2.384659	 28.388700	-0.000001	-15.906850	 12.740130	-0.240435	-0.315057	 21.551580	-0.805024	-6.125234	-7.323852	 2.510777	-94.872340	 74.327740	 160.359300	 6.290549	 5.075347	-52.283880	 14.810120	-4.963872	-12.884120	-38.227430	-20.473080	-26.931350	-2.027600	 6.559038	 9.033609	-5.188889	 0.308190	 3.541030	-5.234859	 0.342567	 0.430617	-1.377403	-5.645347	-2.205542	-5.306934	-5.526141	-2.963489	 95.350070	 66.782550	-162.989400	-18.147180	 11.538900	 57.130930	-21.900330	-15.338580	 45.475280	 18.349230	-18.546080	 21.501290	 1.803333	 3.979147	-15.098590	 4.898592	 3.004813	-9.310344	 5.224449	 0.395017	 2.014677
-0.017582	 0.249306	 1.132824	 2.284772	 24.804160	-4.424479	 31.205400	-59.405540	-160.620300	 3.630307	-52.725260	 3.254742	 47.988730	 72.274500	-56.586410	-2.385833	 28.452750	 0.000004	-12.123210	-65.152510	 177.492700	-11.161790	-56.248580	-5.007309	-20.362840	 73.947060	 42.559520	 2.384659	 28.388700	-0.000001	-22.467160	 12.094240	-0.462413	 0.186497	 21.676460	-1.450644	-6.585862	-9.110166	 2.066464	-93.131500	 76.736950	 161.577100	 8.204535	 9.594685	-54.833970	 18.630130	-6.489150	-14.393280	-37.582220	-22.949680	-28.651650	-2.027600	 6.559038	 9.033609	-5.188889	 0.308190	 3.541030	-5.234859	 0.342567	 0.430617	-1.665465	-13.269490	-2.251712	-5.686804	 1.819132	-2.172637	 94.251010	 68.895110	-164.192300	-20.313280	 14.636050	 56.648090	-22.602190	-19.723450	 51.316360	 17.095860	-21.198120	 21.872710	 1.803333	 3.979147	-15.098590	 4.898592	 3.004813	-9.310344	 5.224449	 0.395017	 2.014677
-0.014542	 0.238383	 1.161106	 2.799255	 22.745420	-3.649598	 27.682020	-54.106230	-164.602000	 3.624731	-47.216920	 2.968285	 41.274250	 71.442450	-49.138500	-2.385833	 28.452750	 0.000004	-15.447670	-58.848430	 175.944800	-8.979139	-50.634550	-2.965027	-17.720100	 72.861740	 38.023040	 2.384659	 28.388700	-0.000001	-28.285660	 10.470740	-0.738192	 0.762745	 21.302970	-2.006552	-7.085590	-11.176250	 1.177417	-94.169310	 74.546350	 164.059800	 10.373310	 10.915520	-55.310210	 22.638100	-8.175921	-15.771500	-35.029370	-25.563480	-29.835220	-2.027600	 6.559038	 9.033609	-5.188889	 0.308190	 3.541030	-5.234859	 0.342567	 0.430617	-1.731155	-14.950470	-0.990988	-6.071416	 3.818008	-2.559332	 93.910780	 68.530360	-165.818000	-22.350650	 16.867650	 53.409280	-22.094340	-24.685670	 58.406310	 14.872280	-23.791250	 21.767190	 1.803333	 3.979147	-15.098590	 4.898592	 3.004813	-9.310344	 5.224449	 0.395017	 2.014677
-0.013400	 0.227434	 1.183468	 3.131490	 20.923480	-2.797874	 25.054850	-49.480420	-167.860000	 3.524269	-42.714340	 2.675499	 35.385920	 70.685280	-42.581200	-2.385833	 28.452750	 0.000004	-17.797680	-53.074010	 175.043300	-7.354338	-45.694760	-1.580541	-16.115400	 71.994450	 34.579590	 2.384659	 28.388700	-0.000001	-31.679940	 8.910270	-0.757160	 1.403866	 20.603010	-2.351603	-7.606913	-12.731920	 0.397441	-94.667470	 72.705640	 165.924700	 12.393210	 11.551310	-55.466480	 25.717220	-9.467550	-16.665920	-32.107530	-28.045860	-28.996630	-2.027600	 6.559038	 9.033609	-5.188889	 0.308190	 3.541030	-5.234859	 0.342567	 0.430617	-1.834581	-15.199830	-0.816625	-6.302312	 4.590410	-2.308087	 94.002670	 65.979350	-167.711400	-23.950450	 17.084270	 50.984710	-21.221700	-28.242530	 63.341210	 12.401820	-25.716800	 21.202130	 1.803333	 3.979147	-15.098590	 4.898592	 3.004813	-9.310344	 5.224449	 0.395017	 2.014677
-0.013046	 0.213763	 1.203237	 3.461923	 18.530270	-1.645276	 22.831950	-44.435970	-171.267200	 3.346071	-38.768880	 2.358134	 30.612370	 70.371700	-36.827750	-2.385833	 28.452750	 0.000004	-19.785690	-46.433100	 174.501800	-5.648128	-40.775590	-0.327763	-14.949780	 71.715640	 31.240670	 2.384659	 28.388700	-0.000001	-33.148620	 7.325060	-0.855554	 1.901890	 19.380470	-2.669193	-8.104257	-13.712430	-0.380174	-94.799680	 71.027230	 167.904200	 14.165090	 12.189250	-55.864800	 28.591960	-10.590860	-17.353040	-28.491890	-30.763470	-26.841630	-2.027600	 6.559038	 9.033609	-5.188889	 0.308190	 3.541030	-5.234859	 0.342567	 0.430617	-1.865571	-14.491130	-0.636807	-6.587869	 4.802171	-2.205892	 93.689940	 64.367070	-169.615300	-25.770080	 18.331240	 50.255680	-20.720710	-31.324970	 66.775720	 9.673199	-28.257110	 20.204050	 1.803333	 3.979147	-15.098590	 4.898592	 3.004813	-9.310344	 5.224449	 0.395017	 2.014677
-0.012149	 0.198699	 1.217990	 3.488110	 15.337640	-1.044255	 22.065690	-38.665030	-173.686000	 2.927128	-35.600670	 1.947923	 26.603470	 70.633930	-31.509490	-2.385833	 28.452750	 0.000004	-20.337690	-39.898370	 175.471200	-4.267321	-36.929040	 0.528124	-12.603300	 71.691550	 26.793410	 2.384659	 28.388700	-0.000001	-32.152530	 6.413435	-0.770568	 2.069580	 18.158370	-2.586415	-8.369639	-13.431710	-0.606887	-94.574070	 70.333920	 169.515500	 15.019970	 12.614350	-56.696590	 30.553380	-11.218150	-17.700500	-25.701750	-33.301650	-25.902080	-2.027600	 6.559038	 9.033609	-5.188889	 0.308190	 3.541030	-5.234859	 0.342567	 0.430617	-1.924615	-12.951570	-0.924233	-6.821900	 4.258647	-2.011830	 93.323930	 63.472330	-170.947900	-26.834760	 19.548810	 49.419730	-19.802590	-33.511200	 69.980760	 7.357109	-30.381810	 19.575280	 1.803333	 3.979147	-15.098590	 4.898592	 3.004813	-9.310344	 5.224449	 0.395017	 2.014677
-0.010888	 0.181769	 1.230466	 3.513103	 12.073510	-0.957336	 21.768390	-32.600940	-175.405200	 2.472513	-32.288510	 1.544222	 21.591520	 70.434000	-25.174010	-2.385833	 28.452760	 0.000004	-20.412410	-33.782440	 177.155100	-3.046608	-33.496950	 1.159159	-9.339541	 71.433130	 21.508810	 2.384659	 28.388700	-0.000001	-28.936160	 5.707433	-0.552159	 2.087505	 16.994660	-2.175057	-8.608820	-12.923750	-0.528334	-94.255660	 70.020740	 170.956200	 15.520390	 12.936940	-57.639180	 31.893960	-11.445550	-17.818230	-22.939340	-35.884000	-24.687240	-2.027600	 6.559038	 9.033609	-5.188889	 0.308190	 3.541030	-5.234859	 0.342567	 0.430617	-2.064340	-11.040760	-1.454949	-6.981943	 3.318796	-1.803774	 92.918730	 62.688400	-172.232800	-27.691140	 20.759020	 48.976430	-18.645930	-34.629340	 72.639510	 5.495285	-33.470690	 18.912550	 1.803333	 3.979147	-15.098590	 4.898592	 3.004813	-9.310344	 5.224449	 0.395017	 2.014677
